<svg height="600" viewBox="0 0 900 600" width="900" xmlns="http://www.w3.org/2000/svg"><path d="m0 0h900v600h-900z" fill="#fff"/><g fill="#fbae3c"><path d="m0 540.8c-59.5-3.4-119-6.8-161.9-42.4s-69.2-103.4-89.7-152.1c-20.5-48.8-35.2-78.5-85.8-101.2s-137.1-38.3-177-78c-39.9-39.6-33.1-103.4-26.4-167.1h540.8z" transform="translate(900)"/><path d="m0-540.8c70-12.1 139.9-24.2 167.1 26.4s11.7 163.9 62.1 198.9c50.5 35 166.8-8.3 177.7 19.8 11 28.2-83.5 127.9-78.8 189.1 4.8 61.2 108.7 83.9 212.7 106.6h-540.8z" transform="translate(0 600)"/></g></svg>